{
	"asset":{
		"generator":"Khronos glTF Blender I/O v4.4.55",
		"version":"2.0"
	},
	"scene":0,
	"scenes":[
		{
			"name":"Scene",
			"nodes":[
				0,
				1,
				2,
				3,
				4,
				5
			]
		}
	],
	"nodes":[
		{
			"mesh":0,
			"name":"Cube",
			"scale":[
				1,
				1,
				0.9900000095367432
			],
			"translation":[
				0.09545351564884186,
				0,
				0
			]
		},
		{
			"mesh":1,
			"name":"Cylinder",
			"scale":[
				-0.18568968772888184,
				-0.18568968772888184,
				-0.18568968772888184
			],
			"translation":[
				0.2836364209651947,
				1.2541651725769043,
				-0.06728367507457733
			]
		},
		{
			"mesh":2,
			"name":"Cylinder.001",
			"rotation":[
				0.5629945993423462,
				-0.09924793988466263,
				-0.09904612600803375,
				0.8144794702529907
			],
			"scale":[
				0.11414032429456711,
				0.1141403317451477,
				0.1141403317451477
			],
			"translation":[
				0.33402466773986816,
				1.684780240058899,
				0.4216805398464203
			]
		},
		{
			"mesh":3,
			"name":"Cylinder.002",
			"rotation":[
				-0.5561356544494629,
				-0.10079620778560638,
				0.025321006774902344,
				0.824567973613739
			],
			"scale":[
				0.1141403317451477,
				0.1141403391957283,
				0.1141403391957283
			],
			"translation":[
				0.3418286442756653,
				1.68471097946167,
				-0.5350925326347351
			]
		},
		{
			"mesh":4,
			"name":"Cylinder.003",
			"rotation":[
				0.0695742666721344,
				-0.03980603441596031,
				0.460643470287323,
				0.8839584589004517
			],
			"scale":[
				0.1141403391957283,
				0.11414032429456711,
				0.11414032429456711
			],
			"translation":[
				-0.09893250465393066,
				1.730639934539795,
				-0.01328238844871521
			]
		},
		{
			"mesh":5,
			"name":"Cylinder.004",
			"rotation":[
				0.058147214353084564,
				0.06283267587423325,
				-0.5364379286766052,
				0.8395863771438599
			],
			"scale":[
				0.1141403317451477,
				0.1141403391957283,
				0.11414032429456711
			],
			"translation":[
				0.786914587020874,
				1.7136201858520508,
				-0.07311981171369553
			]
		}
	],
	"materials":[
		{
			"doubleSided":true,
			"name":"Material",
			"pbrMetallicRoughness":{
				"baseColorFactor":[
					0.800000011920929,
					0.800000011920929,
					0.800000011920929,
					1
				],
				"metallicFactor":0,
				"roughnessFactor":0.5
			}
		}
	],
	"meshes":[
		{
			"name":"Cube",
			"primitives":[
				{
					"attributes":{
						"POSITION":0,
						"NORMAL":1,
						"TEXCOORD_0":2
					},
					"indices":3,
					"material":0
				}
			]
		},
		{
			"name":"Cylinder",
			"primitives":[
				{
					"attributes":{
						"POSITION":4,
						"NORMAL":5,
						"TEXCOORD_0":6
					},
					"indices":7
				}
			]
		},
		{
			"name":"Cylinder.001",
			"primitives":[
				{
					"attributes":{
						"POSITION":8,
						"NORMAL":9,
						"TEXCOORD_0":10
					},
					"indices":11
				}
			]
		},
		{
			"name":"Cylinder.002",
			"primitives":[
				{
					"attributes":{
						"POSITION":12,
						"NORMAL":13,
						"TEXCOORD_0":14
					},
					"indices":11
				}
			]
		},
		{
			"name":"Cylinder.003",
			"primitives":[
				{
					"attributes":{
						"POSITION":15,
						"NORMAL":16,
						"TEXCOORD_0":17
					},
					"indices":11
				}
			]
		},
		{
			"name":"Cylinder.004",
			"primitives":[
				{
					"attributes":{
						"POSITION":18,
						"NORMAL":19,
						"TEXCOORD_0":20
					},
					"indices":11
				}
			]
		}
	],
	"accessors":[
		{
			"bufferView":0,
			"componentType":5126,
			"count":45,
			"max":[
				1,
				1,
				1
			],
			"min":[
				-1,
				-1,
				-1.0000007152557373
			],
			"type":"VEC3"
		},
		{
			"bufferView":1,
			"componentType":5126,
			"count":45,
			"type":"VEC3"
		},
		{
			"bufferView":2,
			"componentType":5126,
			"count":45,
			"type":"VEC2"
		},
		{
			"bufferView":3,
			"componentType":5123,
			"count":144,
			"type":"SCALAR"
		},
		{
			"bufferView":4,
			"componentType":5126,
			"count":192,
			"max":[
				1,
				1,
				1
			],
			"min":[
				-1,
				-1,
				-1
			],
			"type":"VEC3"
		},
		{
			"bufferView":5,
			"componentType":5126,
			"count":192,
			"type":"VEC3"
		},
		{
			"bufferView":6,
			"componentType":5126,
			"count":192,
			"type":"VEC2"
		},
		{
			"bufferView":7,
			"componentType":5123,
			"count":372,
			"type":"SCALAR"
		},
		{
			"bufferView":8,
			"componentType":5126,
			"count":162,
			"max":[
				0.9999998807907104,
				3.825927734375,
				0.9999999403953552
			],
			"min":[
				-0.9999999403953552,
				-3.8059041500091553,
				-0.9999998807907104
			],
			"type":"VEC3"
		},
		{
			"bufferView":9,
			"componentType":5126,
			"count":162,
			"type":"VEC3"
		},
		{
			"bufferView":10,
			"componentType":5126,
			"count":162,
			"type":"VEC2"
		},
		{
			"bufferView":11,
			"componentType":5123,
			"count":372,
			"type":"SCALAR"
		},
		{
			"bufferView":12,
			"componentType":5126,
			"count":162,
			"max":[
				0.9999998807907104,
				3.825927734375,
				0.9999999403953552
			],
			"min":[
				-0.9999999403953552,
				-3.8059041500091553,
				-0.9999998807907104
			],
			"type":"VEC3"
		},
		{
			"bufferView":13,
			"componentType":5126,
			"count":162,
			"type":"VEC3"
		},
		{
			"bufferView":14,
			"componentType":5126,
			"count":162,
			"type":"VEC2"
		},
		{
			"bufferView":15,
			"componentType":5126,
			"count":162,
			"max":[
				0.9999998807907104,
				3.825927734375,
				0.9999999403953552
			],
			"min":[
				-0.9999999403953552,
				-3.8059041500091553,
				-0.9999998807907104
			],
			"type":"VEC3"
		},
		{
			"bufferView":16,
			"componentType":5126,
			"count":162,
			"type":"VEC3"
		},
		{
			"bufferView":17,
			"componentType":5126,
			"count":162,
			"type":"VEC2"
		},
		{
			"bufferView":18,
			"componentType":5126,
			"count":162,
			"max":[
				0.9999998807907104,
				3.825927734375,
				0.9999999403953552
			],
			"min":[
				-0.9999999403953552,
				-3.8059041500091553,
				-0.9999998807907104
			],
			"type":"VEC3"
		},
		{
			"bufferView":19,
			"componentType":5126,
			"count":162,
			"type":"VEC3"
		},
		{
			"bufferView":20,
			"componentType":5126,
			"count":162,
			"type":"VEC2"
		}
	],
	"bufferViews":[
		{
			"buffer":0,
			"byteLength":540,
			"byteOffset":0,
			"target":34962
		},
		{
			"buffer":0,
			"byteLength":540,
			"byteOffset":540,
			"target":34962
		},
		{
			"buffer":0,
			"byteLength":360,
			"byteOffset":1080,
			"target":34962
		},
		{
			"buffer":0,
			"byteLength":288,
			"byteOffset":1440,
			"target":34963
		},
		{
			"buffer":0,
			"byteLength":2304,
			"byteOffset":1728,
			"target":34962
		},
		{
			"buffer":0,
			"byteLength":2304,
			"byteOffset":4032,
			"target":34962
		},
		{
			"buffer":0,
			"byteLength":1536,
			"byteOffset":6336,
			"target":34962
		},
		{
			"buffer":0,
			"byteLength":744,
			"byteOffset":7872,
			"target":34963
		},
		{
			"buffer":0,
			"byteLength":1944,
			"byteOffset":8616,
			"target":34962
		},
		{
			"buffer":0,
			"byteLength":1944,
			"byteOffset":10560,
			"target":34962
		},
		{
			"buffer":0,
			"byteLength":1296,
			"byteOffset":12504,
			"target":34962
		},
		{
			"buffer":0,
			"byteLength":744,
			"byteOffset":13800,
			"target":34963
		},
		{
			"buffer":0,
			"byteLength":1944,
			"byteOffset":14544,
			"target":34962
		},
		{
			"buffer":0,
			"byteLength":1944,
			"byteOffset":16488,
			"target":34962
		},
		{
			"buffer":0,
			"byteLength":1296,
			"byteOffset":18432,
			"target":34962
		},
		{
			"buffer":0,
			"byteLength":1944,
			"byteOffset":19728,
			"target":34962
		},
		{
			"buffer":0,
			"byteLength":1944,
			"byteOffset":21672,
			"target":34962
		},
		{
			"buffer":0,
			"byteLength":1296,
			"byteOffset":23616,
			"target":34962
		},
		{
			"buffer":0,
			"byteLength":1944,
			"byteOffset":24912,
			"target":34962
		},
		{
			"buffer":0,
			"byteLength":1944,
			"byteOffset":26856,
			"target":34962
		},
		{
			"buffer":0,
			"byteLength":1296,
			"byteOffset":28800,
			"target":34962
		}
	],
	"buffers":[
		{
			"byteLength":30096,
			"uri":"chairconfig.bin"
		}
	]
}
